REM MD5 cc7c5c040c485fc11b2494a3a143b742
FILE "Rogue Trip - Vacation 2012 (USA) (Demo).bin" BINARY
  TRACK 01 MODE2/2352
    INDEX 01 00:00:00
  TRACK 02 AUDIO
    INDEX 00 05:21:73
    INDEX 01 05:23:73
  TRACK 03 AUDIO
    INDEX 00 08:02:20
    INDEX 01 08:04:20
REM LEADOUT 11:13:16
